<svg xmlns="http://www.w3.org/2000/svg" viewBox="0 0 480 326"><defs><style>.a{fill:#d26a22;}</style></defs><title>mail</title><path class="a" d="M440,2.11H40a40,40,0,0,0-40,40v240a40,40,0,0,0,40,40H440a40,40,0,0,0,40-40v-240A40,40,0,0,0,440,2.11Zm24,280a24,24,0,0,1-24,24H40a24,24,0,0,1-24-24v-240a24,24,0,0,1,24-24H440a24,24,0,0,1,24,24Z"/><path class="a" d="M446.86,38a8,8,0,0,0-11-2.74L260.58,140.43a39.88,39.88,0,0,1-41.15,0L44.12,35.25A8,8,0,0,0,35.88,49L211.2,154.15a55.9,55.9,0,0,0,57.6,0L444.12,49A8,8,0,0,0,446.86,38Z"/><path class="a" d="M40,66.11a8,8,0,0,0-8,8v208a8,8,0,0,0,16,0v-208A8,8,0,0,0,40,66.11Z"/><path class="a" d="M440,66.11a8,8,0,0,0-8,8v208a8,8,0,0,0,16,0v-208A8,8,0,0,0,440,66.11Z"/></svg>