<svg xmlns="http://www.w3.org/2000/svg" viewBox="0 0 512 446"><defs><style>.a{fill:#d26a22;}</style></defs><title>phone</title><path class="a" d="M384.5,4.22h-257A127.64,127.64,0,0,0,0,131.72v45a7.5,7.5,0,0,0,7.5,7.5H118.7a22.58,22.58,0,0,1-7.7,10.5l-30,22.5a52.75,52.75,0,0,0-21,42V402.5A37.54,37.54,0,0,0,97.5,440h317A37.54,37.54,0,0,0,452,402.5V259.22a52.75,52.75,0,0,0-21-42l-30-22.5a22.59,22.59,0,0,1-7.7-10.5H504.5a7.5,7.5,0,0,0,7.5-7.5v-45A127.64,127.64,0,0,0,384.5,4.22Zm-257,15h257a112.64,112.64,0,0,1,112.24,105H392v-7.5A37.57,37.57,0,0,0,362,80V56.72a22.5,22.5,0,0,0-43.71-7.5H193.71A22.5,22.5,0,0,0,150,56.72V80a37.57,37.57,0,0,0-30,36.75v7.5H15.26A112.64,112.64,0,0,1,127.5,19.22Zm67.5,45H317v15H195Zm-180,75H120v30H15Zm407,90a37.68,37.68,0,0,1,15,30V327.5A22.52,22.52,0,0,1,414.5,350h-287a7.5,7.5,0,0,0,0,15h287a37.3,37.3,0,0,0,22.5-7.52v45A22.52,22.52,0,0,1,414.5,425H97.5A22.52,22.52,0,0,1,75,402.5v-45A37.3,37.3,0,0,0,97.5,365a7.5,7.5,0,0,0,0-15A22.52,22.52,0,0,1,75,327.5V259.22a37.68,37.68,0,0,1,15-30l30-22.5a37.68,37.68,0,0,0,15-30v-60a22.52,22.52,0,0,1,22.5-22.5,7.5,7.5,0,0,0,7.5-7.5v-30a7.5,7.5,0,0,1,15,0v30a7.5,7.5,0,0,0,7.5,7.5h137a7.5,7.5,0,0,0,7.5-7.5v-30a7.5,7.5,0,1,1,15,0v30a7.5,7.5,0,0,0,7.5,7.5,22.52,22.52,0,0,1,22.5,22.5v60a37.68,37.68,0,0,0,15,30Zm-30-60v-30H497v30Z"/><path class="a" d="M256,109.22a112.5,112.5,0,1,0,112.5,112.5A112.63,112.63,0,0,0,256,109.22Zm0,210a97.5,97.5,0,1,1,97.5-97.5A97.61,97.61,0,0,1,256,319.22Z"/><path class="a" d="M256,169.22a52.5,52.5,0,1,0,52.5,52.5A52.56,52.56,0,0,0,256,169.22Zm0,90a37.5,37.5,0,1,1,37.5-37.5A37.54,37.54,0,0,1,256,259.22Z"/><path class="a" d="M256,139.22a82.5,82.5,0,1,0,82.5,82.5A82.59,82.59,0,0,0,256,139.22Zm0,150a67.5,67.5,0,1,1,67.5-67.5A67.58,67.58,0,0,1,256,289.22Z"/></svg>